<?xml version="1.0" encoding="UTF-8"?>
<svg xmlns="http://www.w3.org/2000/svg" version="1.1" xmlns:xlink="http://www.w3.org/1999/xlink" viewBox="0 0 512 512">
  <defs>
    <style>
      .cls-1 {
        fill: #2c2c2c;
      }

      .cls-2 {
        fill: #5f3713;
      }

      .cls-3 {
        display: none;
        opacity: .5;
      }

      .cls-4 {
        fill: #42260d;
      }

      .cls-5 {
        fill: #fdfdfd;
      }

      .cls-6 {
        fill: #161616;
      }
    </style>
  </defs>
  <!-- Generator: Adobe Illustrator 28.6.0, SVG Export Plug-In . SVG Version: 1.2.0 Build 709)  -->
  <g>
    <g id="Layer_1">
      <rect class="cls-1" width="512" height="512" rx="54" ry="54"/>
      <path class="cls-6" d="M388.5,146.2L91.1,416.2l97.7,95.8h269.2c29.8,0,54-24.2,54-54v-187.8l-123.5-124Z"/>
      <path class="cls-2" d="M255.4,82.8c1.3,0,2.6,0,3.9,0,15.1,0,28.8,2,43.2,6.3.7.2,1.3.4,2,.6,10.4,3.1,20,6.8,29.5,12.3,1,.5,1.9,1,2.9,1.5,13.4,6.8,25,16.5,36.1,26.5.5.5,1,.9,1.6,1.4,17.4,15.8,30.7,36.9,39.4,58.6q.6,1.5,1.2,3c6,15.5,9.9,32.5,10,49.2,0,.8,0,1.5,0,2.3,0,2.4,0,4.9,0,7.3,0,.8,0,1.7,0,2.5,0,12.5-.5,24.5-3.3,36.7-.2.7-.3,1.5-.5,2.2-1.4,6.5-3,12.8-5.7,18.8-1,2.2-1.8,4.5-2.7,6.7-8.2,20.5-20.4,37.9-35.1,54.2-.8.9-1.6,1.7-2.4,2.6-21,22.1-48.8,35.8-77.6,44.4-.9.3-1.8.6-2.7.9-13.1,3.9-26.7,4.5-40.3,4.5-2.3,0-4.7,0-7,0-28,.1-54.6-8-78.9-21.7-2.7-1.4-5.3-2.6-8.1-3.7-.5.5-1.1,1.1-1.6,1.7-2.4,2.5-4.9,5-7.3,7.5-.8.9-1.7,1.7-2.5,2.6-5.1,5.2-9.9,9.1-16.5,12.2-.6.3-1.3.7-1.9,1-7.3,3.6-16.6,3.1-24.3,1.2-11.3-4.2-19.6-12.3-24.7-23.2-3.7-9.1-2.8-19.2.5-28.2,4.6-8.7,11.6-15,18.8-21.6q4.3-3.9,6-9.1c-1.8-4.2-3.9-8.2-6.1-12.2-5.8-10.4-9.4-21.1-12.8-32.5-.3-1-.6-1.9-.9-2.9-4-13.6-4.8-27.3-4.8-41.4,0-2.3,0-4.7,0-7,0-18.4,2.9-37,10.4-54,.7-2,1.5-4,2.2-6,15.4-40,49.1-73.2,87.8-91,3.5-1.4,7.1-2.7,10.8-3.9q3.3-1.1,6.5-2.6c4.6-2,9.4-3.1,14.3-4.2.9-.2,1.8-.4,2.7-.7,12.5-2.9,25.3-2.9,38.1-2.9Z"/>
      <path class="cls-4" d="M337.8,140.1c25.5,21.7,30.6,29,36.8,42.7-.3,2.3,1.7,8.2,1,9.9-38.7-24.4-110.7-33-164,20.9-58.6,57.7-37.7,144.9-19,162.6,0,.7-29.8-14.9-37.8-23-.5-.5-41.3-36.3-41.3-71.4,0-12.9,1.2-63.7,5.2-76,.2-.8,26.9-47.2,42.9-58.5,46.3-44.3,126.4-46.7,176.2-7.3Z"/>
      <path class="cls-5" d="M255.4,82.8c1.3,0,2.6,0,3.9,0,15.1,0,28.8,2,43.2,6.3.7.2,1.3.4,2,.6,10.4,3.1,20,6.8,29.5,12.3,1,.5,1.9,1,2.9,1.5,13.4,6.8,25,16.5,36.1,26.5.5.5,1,.9,1.6,1.4,17.4,15.8,30.7,36.9,39.4,58.6q.6,1.5,1.2,3c6,15.5,9.9,32.5,10,49.2,0,.8,0,1.5,0,2.3,0,2.4,0,4.9,0,7.3,0,.8,0,1.7,0,2.5,0,12.5-.5,24.5-3.3,36.7-.2.7-.3,1.5-.5,2.2-1.4,6.5-3,12.8-5.7,18.8-1,2.2-1.8,4.5-2.7,6.7-8.2,20.5-20.4,37.9-35.1,54.2-.8.9-1.6,1.7-2.4,2.6-21,22.1-48.8,35.8-77.6,44.4-.9.3-1.8.6-2.7.9-13.1,3.9-26.7,4.5-40.3,4.5-2.3,0-4.7,0-7,0-28,.1-54.6-8-78.9-21.7-2.7-1.4-5.3-2.6-8.1-3.7-.5.5-1.1,1.1-1.6,1.7-2.4,2.5-4.9,5-7.3,7.5-.8.9-1.7,1.7-2.5,2.6-5.1,5.2-9.9,9.1-16.5,12.2-.6.3-1.3.7-1.9,1-7.3,3.6-16.6,3.1-24.3,1.2-11.3-4.2-19.6-12.3-24.7-23.2-3.7-9.1-2.8-19.2.5-28.2,4.6-8.7,11.6-15,18.8-21.6q4.3-3.9,6-9.1c-1.8-4.2-3.9-8.2-6.1-12.2-5.8-10.4-9.4-21.1-12.8-32.5-.3-1-.6-1.9-.9-2.9-4-13.6-4.8-27.3-4.8-41.4,0-2.3,0-4.7,0-7,0-18.4,2.9-37,10.4-54,.7-2,1.5-4,2.2-6,15.4-40,49.1-73.2,87.8-91,3.5-1.4,7.1-2.7,10.8-3.9q3.3-1.1,6.5-2.6c4.6-2,9.4-3.1,14.3-4.2.9-.2,1.8-.4,2.7-.7,12.5-2.9,25.3-2.9,38.1-2.9ZM158,160c-.8.8-1.7,1.7-2.5,2.5-15,15.6-25.1,34.7-30.9,55.5-.5,1.9-1.1,3.8-1.8,5.6-9.8,33.5-.5,69.1,15.6,98.8,17.2,30.7,47.2,51.9,80.6,61.6.6.2,1.3.4,1.9.6,33.2,10.1,69.2,2.1,99.1-13.7,21-11.4,37.5-28.8,50-48.9.4-.6.7-1.2,1.1-1.8,7.2-11.5,10.6-24.2,13.9-37.2.3-1,.6-2,.8-3.1,2.2-8.6,2.7-17,2.7-25.9,0-.7,0-1.4,0-2.2,0-12.5-1.7-23.9-5.5-35.8-.4-1.3-.8-2.7-1.1-4-10.3-34.2-36.6-61.5-67.4-78.3-52.1-27.2-115.5-14.1-156.4,26.3Z"/>
      <image class="cls-3" width="512" height="512" xlink:href="android-chrome-512x512.png"/>
    </g>
  </g>
</svg>